<?xml version="1.0" encoding="UTF-8"?>
<svg xmlns="http://www.w3.org/2000/svg" xmlns:xlink="http://www.w3.org/1999/xlink" width="36pt" height="36pt" viewBox="0 0 36 36" version="1.1">
<g id="surface1">
<path style=" stroke:none;fill-rule:nonzero;fill:rgb(12.941176%,58.823529%,95.294118%);fill-opacity:1;" d="M 36 18 C 36 27.941406 27.941406 36 18 36 C 8.058594 36 0 27.941406 0 18 C 0 8.058594 8.058594 0 18 0 C 27.941406 0 36 8.058594 36 18 Z M 36 18 "/>
<path style=" stroke:none;fill-rule:nonzero;fill:rgb(98.039216%,98.039216%,98.039216%);fill-opacity:1;" d="M 27 21.722656 C 25.058594 21.722656 23.207031 21.300781 21.496094 20.464844 C 21.230469 20.335938 20.921875 20.316406 20.636719 20.410156 C 20.351562 20.511719 20.121094 20.71875 19.992188 20.984375 L 19.179688 22.660156 C 16.753906 21.265625 14.738281 19.246094 13.339844 16.820312 L 15.019531 16.007812 C 15.285156 15.878906 15.492188 15.648438 15.589844 15.363281 C 15.683594 15.078125 15.667969 14.769531 15.539062 14.503906 C 14.699219 12.796875 14.277344 10.945312 14.277344 9 C 14.277344 8.378906 13.777344 7.875 13.152344 7.875 L 9 7.875 C 8.378906 7.875 7.875 8.378906 7.875 9 C 7.875 19.546875 16.453125 28.125 27 28.125 C 27.621094 28.125 28.125 27.621094 28.125 27 L 28.125 22.847656 C 28.125 22.222656 27.621094 21.722656 27 21.722656 Z M 27 21.722656 "/>
</g>
</svg>
