<?xml version="1.0" encoding="UTF-8"?>
<svg xmlns="http://www.w3.org/2000/svg" xmlns:xlink="http://www.w3.org/1999/xlink" width="36pt" height="36pt" viewBox="0 0 36 36" version="1.1">
<g id="surface1">
<path style=" stroke:none;fill-rule:nonzero;fill:rgb(12.941176%,58.823529%,95.294118%);fill-opacity:1;" d="M 18 0 C 8.074219 0 0 8.074219 0 18 C 0 21.460938 0.96875 24.785156 2.808594 27.648438 L 0.0820312 34.457031 C -0.0859375 34.875 0.0117188 35.351562 0.332031 35.671875 C 0.542969 35.886719 0.832031 36 1.125 36 C 1.265625 36 1.40625 35.972656 1.542969 35.917969 L 8.351562 33.191406 C 11.214844 35.03125 14.539062 36 18 36 C 27.925781 36 36 27.925781 36 18 C 36 8.074219 27.925781 0 18 0 Z M 18 0 "/>
<path style=" stroke:none;fill-rule:nonzero;fill:rgb(98.039216%,98.039216%,98.039216%);fill-opacity:1;" d="M 19.125 22.5 L 10.125 22.5 C 9.503906 22.5 9 21.996094 9 21.375 C 9 20.753906 9.503906 20.25 10.125 20.25 L 19.125 20.25 C 19.746094 20.25 20.25 20.753906 20.25 21.375 C 20.25 21.996094 19.746094 22.5 19.125 22.5 Z M 19.125 22.5 "/>
<path style=" stroke:none;fill-rule:nonzero;fill:rgb(98.039216%,98.039216%,98.039216%);fill-opacity:1;" d="M 25.875 15.75 L 10.125 15.75 C 9.503906 15.75 9 15.246094 9 14.625 C 9 14.003906 9.503906 13.5 10.125 13.5 L 25.875 13.5 C 26.496094 13.5 27 14.003906 27 14.625 C 27 15.246094 26.496094 15.75 25.875 15.75 Z M 25.875 15.75 "/>
</g>
</svg>
